<?xml version="1.0" encoding="iso-8859-1"?>
<!-- Generator: Adobe Illustrator 19.0.0, SVG Export Plug-In . SVG Version: 6.00 Build 0)  -->
<svg version="1.1" id="Capa_1" xmlns="http://www.w3.org/2000/svg" xmlns:xlink="http://www.w3.org/1999/xlink" x="0px" y="0px"
	 viewBox="0 0 460 460" style="enable-background:new 0 0 460 460;" xml:space="preserve">
<g id="XMLID_870_">
	<polygon id="XMLID_871_" style="fill:#FFDE55;" points="230,166.381 394.318,166.381 397.102,121.331 230,121.331 	"/>
	<polygon id="XMLID_872_" style="fill:#C0AB91;" points="230,236.333 230,245.048 238.716,236.333 	"/>
	<polygon id="XMLID_873_" style="fill:#C0AB91;" points="230,196.333 295,196.333 295,236.333 230,301.514 230,310.048 295,310.048 
		295,350.048 230,350.048 230,376.364 381.354,376.364 394.318,166.381 230,166.381 	"/>
	<polygon id="XMLID_874_" style="fill:#FFDE55;" points="230,460 376.187,460 381.354,376.364 230,376.364 	"/>
	<polygon id="XMLID_875_" style="fill:#FFEB99;" points="78.646,376.364 83.813,460 230,460 230,376.364 	"/>
	<polygon id="XMLID_876_" style="fill:#D9CCBC;" points="230,310.048 230,301.514 221.49,310.048 	"/>
	<polygon id="XMLID_877_" style="fill:#D9CCBC;" points="230,350.048 165,350.048 165,310.048 230,245.048 230,236.333 
		165.284,236.333 165.284,196.333 230,196.333 230,166.381 65.682,166.381 78.646,376.364 230,376.364 	"/>
	<polygon id="XMLID_878_" style="fill:#FFEB99;" points="230,121.331 62.898,121.331 65.682,166.381 230,166.381 	"/>
	<rect id="XMLID_879_" x="61.695" style="fill:#D9CCBC;" width="168.304" height="81.331"/>
	<rect id="XMLID_880_" x="230" style="fill:#C0AB91;" width="168.305" height="81.331"/>
	<rect id="XMLID_881_" x="36" y="81.331" style="fill:#EBE5DD;" width="388" height="40"/>
	<polygon id="XMLID_882_" style="fill:#FFFFFF;" points="165.284,236.333 238.716,236.333 165,310.048 165,350.048 295,350.048 
		295,310.048 221.49,310.048 230,301.514 295,236.333 295,196.333 165.284,196.333 	"/>
</g>
<g>
</g>
<g>
</g>
<g>
</g>
<g>
</g>
<g>
</g>
<g>
</g>
<g>
</g>
<g>
</g>
<g>
</g>
<g>
</g>
<g>
</g>
<g>
</g>
<g>
</g>
<g>
</g>
<g>
</g>
</svg>
